<!-- This is a placeholder SVG for the friends image -->
<svg xmlns="http://www.w3.org/2000/svg" width="300" height="200" viewBox="0 0 300 200">
  <defs>
    <linearGradient id="friendsGrad" x1="0%" y1="0%" x2="100%" y2="100%">
      <stop offset="0%" style="stop-color:#ff9a9e;stop-opacity:1" />
      <stop offset="100%" style="stop-color:#fecfef;stop-opacity:1" />
    </linearGradient>
  </defs>
  <rect width="300" height="200" fill="url(#friendsGrad)"/>
  <rect x="40" y="40" width="220" height="120" rx="15" fill="white" opacity="0.9"/>
  
  <!-- People icons -->
  <circle cx="100" cy="90" r="20" fill="#ff9a9e" opacity="0.7"/>
  <rect x="80" y="110" width="40" height="25" rx="12" fill="#ff9a9e" opacity="0.7"/>
  <circle cx="95" cy="85" r="8" fill="white"/>
  <circle cx="105" cy="85" r="8" fill="white"/>
  <path d="M 95 95 Q 100 100 105 95" stroke="white" stroke-width="2" fill="none"/>
  
  <circle cx="150" cy="80" r="18" fill="#fecfef" opacity="0.8"/>
  <rect x="132" y="98" width="36" height="22" rx="11" fill="#fecfef" opacity="0.8"/>
  <circle cx="143" cy="76" r="6" fill="white"/>
  <circle cx="157" cy="76" r="6" fill="white"/>
  <path d="M 143 84 Q 150 88 157 84" stroke="white" stroke-width="2" fill="none"/>
  
  <circle cx="200" cy="95" r="22" fill="#ff9a9e" opacity="0.6"/>
  <rect x="178" y="117" width="44" height="28" rx="14" fill="#ff9a9e" opacity="0.6"/>
  <circle cx="192" cy="89" r="9" fill="white"/>
  <circle cx="208" cy="89" r="9" fill="white"/>
  <path d="M 192 100 Q 200 105 208 100" stroke="white" stroke-width="2" fill="none"/>
  
  <text x="150" y="185" font-family="Arial, sans-serif" font-size="14" text-anchor="middle" fill="white" font-weight="bold">Connect with Peers</text>
</svg>
